<?xml version="1.0"?>
<svg width="1000pt" height="1000pt">
<g>
<path d="M 322.0 306.0 C 306.363983154 324.911010742 284.782653809 338.832214355 261.106842041 345.279602051 C 237.43107605 351.727020264 211.771026611 350.670562744 188.705352783 342.298828125 C 165.639678955 333.927093506 145.27571106 318.278991699 131.24710083 298.146697998 C 117.218475342 278.014373779 109.590484619 253.491592407 109.724220276 228.953994751 C 109.857948303 204.416397095 117.7527771 179.97819519 132.0 160.0 C 142.382659912 145.440979004 156.537322998 133.702194214 172.443359375 125.531349182 C 188.349395752 117.36050415 205.972381592 112.712005615 223.793075562 111.232803345 C 241.613754272 109.753601074 259.632080078 111.406784058 277.067779541 115.376838684 C 294.503448486 119.346893311 311.370422363 125.615150452 327.50668335 133.321334839 C 343.642974854 141.027511597 359.063720703 150.167800903 374.0 160.0 C 379.769927979 163.798217773 385.479156494 167.692138672 391.031646729 171.80166626 C 396.584136963 175.911178589 401.980773926 180.237411499 407.098236084 184.877441406 C 412.215698242 189.517471313 417.054351807 194.472885132 421.454345703 199.798141479 C 425.854370117 205.123397827 429.815155029 210.820480347 433.141571045 216.874679565 C 436.468017578 222.928863525 439.158111572 229.342224121 441.0 236.0 C 445.594512939 252.607772827 444.698059082 270.685913086 438.483123779 286.75769043 C 432.268157959 302.829437256 420.76852417 316.807312012 406.195800781 326.003112793 C 391.623046875 335.198913574 374.05657959 339.562561035 356.874694824 338.254852295 C 339.692810059 336.947143555 322.989074707 329.975189209 309.975921631 318.679840088 C 296.962738037 307.384490967 287.711029053 291.82723999 284.0 275.0 " fill="none" stroke="rgb(0,0,0)" />
</g>
</svg>
